<?xml version="1.0" standalone="no"?>
<!DOCTYPE svg PUBLIC "-//W3C//DTD SVG 20010904//EN"
 "http://www.w3.org/TR/2001/REC-SVG-20010904/DTD/svg10.dtd">
<svg version="1.0" xmlns="http://www.w3.org/2000/svg"
 width="512.000000pt" height="512.000000pt" viewBox="0 0 512.000000 512.000000"
 preserveAspectRatio="xMidYMid meet">

<g transform="translate(0.000000,512.000000) scale(0.100000,-0.100000)"
fill="#000000" stroke="none">
<path d="M3632 4617 c-182 -182 -332 -337 -332 -342 0 -13 962 -975 975 -975
6 0 160 150 343 333 l332 332 -493 493 -492 492 -333 -333z"/>
<path d="M2970 4550 c-59 -31 -196 -179 -209 -225 -13 -49 -13 -51 0 -100 9
-34 108 -138 707 -738 383 -384 706 -703 717 -709 36 -20 84 -26 131 -16 39 9
61 24 131 91 47 45 94 98 104 119 38 74 18 158 -55 227 l-35 34 -51 -46 c-29
-26 -68 -51 -88 -57 -46 -12 -48 -12 -97 1 -34 9 -115 86 -553 522 -282 282
-519 523 -526 537 -40 75 -27 145 41 220 l46 51 -34 35 c-69 72 -157 93 -229
54z"/>
<path d="M2890 3666 l0 -160 -270 -271 c-248 -249 -270 -274 -270 -305 0 -32
22 -57 273 -307 251 -251 275 -273 307 -273 31 0 56 21 302 268 l268 267 160
5 160 5 -465 465 -465 465 0 -159z m175 -402 c41 -19 191 -172 205 -208 14
-38 13 -101 -4 -139 -7 -18 -67 -84 -132 -148 -136 -133 -166 -149 -251 -128
-40 11 -63 27 -139 103 -76 76 -92 99 -103 139 -21 85 -5 115 128 251 64 65
130 124 146 132 41 18 110 17 150 -2z"/>
<path d="M1087 2313 c-362 -363 -524 -531 -539 -561 -29 -61 -33 -119 -13
-188 16 -58 22 -64 483 -527 332 -332 480 -474 512 -490 62 -30 158 -30 220 0
32 16 194 171 563 540 487 488 517 521 517 554 0 28 -9 43 -45 79 l-45 44 -78
-76 c-91 -91 -142 -117 -228 -118 -105 0 -124 14 -491 382 -363 364 -373 376
-373 483 0 84 27 136 118 227 l76 78 -44 45 c-36 36 -51 45 -79 45 -33 0 -66
-30 -554 -517z"/>
<path d="M1812 2546 c-117 -121 -135 -87 256 -478 391 -391 358 -374 478 -255
l74 72 -368 368 -368 368 -72 -75z"/>
<path d="M412 907 l-242 -242 244 -244 244 -244 39 31 c21 17 132 125 248 241
l210 211 -245 245 c-135 135 -247 245 -250 245 -3 0 -114 -109 -248 -243z"/>
</g>
</svg>
